<svg xmlns="http://www.w3.org/2000/svg" viewBox="0 0 64 64" role="img" aria-labelledby="title desc">
  <title id="title">Flamed logo</title>
  <desc id="desc">A sharp red flame forming the letter F on a dark square.</desc>
  <defs>
    <linearGradient id="flame" x1="20" y1="56" x2="44" y2="8" gradientUnits="userSpaceOnUse">
      <stop offset="0" stop-color="#ff2b2b" />
      <stop offset="0.55" stop-color="#ff6a1a" />
      <stop offset="1" stop-color="#ffd166" />
    </linearGradient>
    <linearGradient id="core" x1="31" y1="49" x2="39" y2="21" gradientUnits="userSpaceOnUse">
      <stop offset="0" stop-color="#fff3a3" />
      <stop offset="1" stop-color="#ffffff" />
    </linearGradient>
    <filter id="glow" x="-35%" y="-35%" width="170%" height="170%" color-interpolation-filters="sRGB">
      <feDropShadow dx="0" dy="4" stdDeviation="5" flood-color="#ff2b2b" flood-opacity="0.42" />
    </filter>
  </defs>

  <rect width="64" height="64" rx="14" fill="#12151f" />
  <path
    fill="url(#flame)"
    filter="url(#glow)"
    d="M32.2 57.5c-10.3 0-18.4-7.1-18.4-17.2 0-6.5 3.4-11.8 8.8-16.6 4.4-3.9 7.3-8.8 6.7-15.6-.1-1.3 1.4-2.1 2.4-1.2 6.8 5.7 11.7 12.6 11.7 20.1 1.8-1.7 3.3-4.1 3.9-6.8.3-1.3 1.9-1.6 2.7-.5 3 4.3 4.7 8.9 4.7 14.3 0 13.1-9.8 23.5-22.5 23.5Z"
  />
  <path
    fill="url(#core)"
    d="M31.5 50.2c-5.7 0-10-4.1-10-9.8 0-3.8 2.3-7 6.2-9.9 3.4-2.6 5.4-5.5 5.4-10.1 0-1.1 1.3-1.7 2.1-.9 4.5 4.3 7.1 9.2 7.1 14.4 1.4-1 2.5-2.3 3.3-4 .4-.9 1.6-.9 2.1-.1 1.7 2.8 2.6 5.8 2.6 9.1 0 6.6-5.3 11.3-11.7 11.3h-7.1Z"
    opacity="0.92"
  />
  <path
    fill="#12151f"
    d="M24.2 18.2h18.9v6.3H31.8v6.1h9.3v6h-9.3v14.8h-7.6V18.2Z"
  />
  <path fill="#ffffff" fill-opacity="0.88" d="M31.8 24.5h11.3v2H31.8v-2Zm0 12.1h9.3v1.9h-9.3v-1.9Z" />
</svg>
